<?xml version="1.0" standalone="no"?>
<!DOCTYPE svg PUBLIC "-//W3C//DTD SVG 20010904//EN"
 "http://www.w3.org/TR/2001/REC-SVG-20010904/DTD/svg10.dtd">
<svg version="1.0" xmlns="http://www.w3.org/2000/svg"
 width="300.000000pt" height="300.000000pt" viewBox="0 0 300.000000 300.000000"
 preserveAspectRatio="xMidYMid meet">
<metadata>
Created by potrace 1.10, written by Peter Selinger 2001-2011
</metadata>
<g transform="translate(0.000000,300.000000) scale(0.100000,-0.100000)"
fill="#000000" stroke="none">
<path d="M1799 1991 c-24 -18 -133 -32 -250 -31 -25 1 -58 -4 -72 -9 -37 -14
-69 -68 -64 -106 3 -18 -2 -40 -12 -55 -10 -14 -18 -40 -19 -59 -2 -27 5 -40
33 -67 20 -19 43 -34 51 -34 19 0 18 -24 -1 -40 -13 -11 -13 -15 -3 -21 10 -7
10 -9 1 -9 -7 0 -13 -4 -13 -10 0 -5 6 -10 13 -10 6 0 34 -29 60 -65 42 -55
48 -68 42 -94 -4 -17 -10 -31 -15 -31 -5 0 -41 -30 -80 -66 -48 -44 -78 -64
-90 -61 -13 3 -16 0 -13 -14 10 -36 -26 -20 -47 21 -18 36 -19 39 -3 33 10 -3
-2 13 -26 37 -38 37 -47 41 -75 36 -18 -4 -35 -4 -38 0 -4 3 11 39 33 80 31
60 39 86 39 128 0 30 -6 60 -15 72 -9 12 -14 43 -15 82 0 68 -20 124 -51 146
-10 7 -16 16 -12 20 4 4 0 4 -10 0 -9 -3 -17 -2 -17 4 0 11 -61 42 -82 42 -10
0 -9 -3 2 -10 12 -8 9 -10 -12 -10 -15 0 -30 -5 -33 -10 -4 -6 -11 -8 -16 -4
-6 3 -5 12 3 22 11 14 10 15 -7 7 -11 -4 -38 -11 -60 -15 -22 -4 -34 -8 -27
-9 19 -2 14 -19 -8 -26 -11 -4 -34 -18 -50 -32 -17 -13 -30 -20 -30 -13 0 6
-4 8 -10 5 -5 -3 -10 -2 -10 4 0 13 17 23 22 13 1 -5 19 3 38 16 32 23 33 24
8 18 -14 -3 -34 -9 -45 -13 -16 -6 -17 -5 -3 12 14 18 13 18 -19 -1 -18 -10
-35 -25 -38 -31 -3 -7 -12 -13 -20 -13 -8 0 -11 -5 -7 -12 5 -8 -9 -9 -54 -5
-38 4 -71 2 -86 -4 -30 -14 -50 -59 -41 -90 7 -21 9 -21 20 -6 42 58 52 67 70
68 20 0 20 0 0 9 -16 7 -11 9 20 9 22 0 47 -4 55 -9 13 -8 12 -10 -4 -10 -11
0 -16 -3 -13 -7 4 -3 2 -12 -5 -20 -8 -10 -8 -17 0 -25 6 -6 8 -17 5 -25 -3
-7 -2 -13 3 -12 24 4 34 -3 35 -23 1 -17 2 -19 6 -5 2 9 8 17 13 17 4 0 3 -16
-3 -35 -6 -20 -15 -34 -21 -32 -19 7 -12 -97 7 -126 22 -33 58 -58 99 -66 19
-4 43 -21 60 -42 42 -52 33 -91 -34 -143 l-51 -38 -39 22 c-50 28 -104 23
-157 -14 l-36 -26 -19 25 c-10 14 -32 33 -48 41 -40 21 -132 20 -181 -1 -52
-22 -120 -87 -140 -132 -22 -54 -47 -171 -47 -221 0 -74 41 -146 102 -178 36
-18 119 -18 165 1 35 15 39 15 66 -6 61 -45 145 -35 211 26 21 19 42 33 46 30
5 -3 6 3 3 13 -2 11 3 27 13 37 17 17 18 16 29 -15 6 -17 22 -40 35 -51 l25
-19 -32 10 c-47 12 -41 2 11 -21 38 -16 51 -18 94 -8 44 9 55 8 91 -10 51 -27
113 -27 167 -1 l42 21 34 -21 c44 -27 100 -25 160 5 46 23 51 24 78 10 39 -20
97 -18 140 4 l34 19 35 -27 c47 -35 134 -37 180 -3 29 21 34 22 113 11 46 -6
102 -11 126 -10 23 1 56 -6 72 -14 64 -33 161 -6 219 61 17 19 35 34 40 34 5
0 18 -15 29 -34 25 -43 77 -62 125 -47 41 14 151 120 177 172 26 50 25 68 -6
100 l-26 27 28 42 c38 57 45 137 15 179 -40 56 -105 60 -168 11 -25 -19 -25
-19 -54 2 -42 32 -128 36 -202 9 l-59 -20 -29 21 c-37 28 -104 27 -163 -3
l-45 -22 -43 39 c-24 22 -58 52 -75 68 -43 39 -49 60 -24 92 25 32 26 40 6 78
-17 33 -20 72 -5 81 6 3 10 16 10 28 0 12 22 43 52 74 61 62 69 104 28 148
-19 20 -24 35 -21 66 3 41 -13 74 -32 62 -5 -3 -7 -1 -3 5 3 6 -8 20 -25 33
-26 18 -33 19 -40 8 -6 -10 -9 -10 -9 -1 0 19 -54 14 -81 -7z m127 -38 c32
-21 40 -57 20 -88 -20 -31 -20 -45 1 -45 24 0 53 -30 53 -56 0 -20 -65 -92
-125 -139 -11 -8 -15 -14 -10 -13 16 3 55 -13 55 -22 0 -6 -11 -5 -26 0 -34
13 -37 13 -30 -6 5 -12 -2 -11 -33 6 -43 25 -77 23 -74 -4 1 -14 -4 -16 -24
-11 -18 4 -24 2 -21 -7 4 -12 60 -21 85 -13 7 3 10 11 7 20 -4 9 -13 14 -20
11 -8 -3 -14 -1 -14 4 0 15 11 12 58 -12 30 -16 42 -29 42 -45 0 -22 -3 -22
-65 -13 -5 1 4 8 20 15 23 11 25 14 10 14 -30 1 -42 -11 -49 -49 -5 -30 -5
-31 4 -11 6 13 13 22 15 19 9 -8 -13 -58 -25 -58 -6 0 -15 -12 -21 -26 -12
-34 11 -74 43 -74 17 0 19 3 10 12 -19 19 -14 28 16 27 17 -1 20 -3 9 -6 -9
-2 -15 -8 -12 -13 8 -13 35 -1 35 15 0 15 -35 26 -56 18 -8 -3 -14 -14 -14
-25 0 -10 -4 -16 -10 -13 -18 11 -11 64 9 75 25 13 51 13 51 -1 0 -5 -4 -8 -9
-5 -11 7 -41 -3 -41 -13 0 -4 13 -6 29 -3 21 3 33 -2 44 -19 19 -26 7 -49 -24
-49 -11 0 -19 -5 -19 -11 0 -6 -7 -8 -16 -5 -12 4 -14 1 -9 -14 4 -11 2 -20
-4 -20 -6 0 -11 7 -11 16 0 8 -5 12 -10 9 -6 -4 -9 -13 -8 -20 2 -8 -1 -13 -7
-12 -5 1 -9 6 -7 11 2 5 -10 6 -27 3 -21 -5 -37 0 -56 15 -26 20 -26 20 -6 35
12 8 21 21 21 29 0 8 6 14 14 14 8 0 18 4 21 10 4 6 -11 7 -39 4 -44 -6 -48
-5 -82 32 -58 63 -66 87 -62 172 3 46 9 77 16 80 7 2 10 -2 7 -11 -3 -7 1 -20
9 -27 26 -21 30 13 7 51 -12 19 -21 29 -21 22 0 -7 -7 -10 -17 -6 -11 4 -14 3
-9 -5 4 -7 2 -12 -4 -12 -17 0 -24 31 -9 41 8 5 30 9 50 9 20 0 52 6 70 14 32
14 37 13 89 -15 46 -25 50 -26 28 -7 -15 13 -37 31 -50 40 -16 13 -18 16 -5
12 13 -5 20 -1 24 14 2 11 13 22 24 25 10 3 19 11 19 17 0 10 -3 10 -15 0 -8
-7 -24 -10 -35 -7 -17 4 -18 2 -9 -14 5 -10 6 -20 2 -20 -21 -3 -31 -6 -64
-21 -56 -26 -86 -31 -122 -19 -44 15 -69 43 -69 78 0 60 85 82 171 43 49 -23
68 -20 24 3 -26 15 -27 16 -8 24 25 10 123 10 151 0 17 -6 22 -4 20 10 -1 22
42 45 73 38 12 -3 34 -13 47 -22z m-899 -92 c-16 -10 -24 -21 -19 -25 5 -3 15
1 22 9 19 23 53 18 98 -14 44 -33 47 -40 57 -122 l6 -55 -40 0 c-39 1 -41 2
-41 34 0 40 -25 102 -41 102 -18 0 -6 -107 14 -128 16 -15 15 -18 -5 -39 -12
-13 -17 -23 -11 -23 5 0 18 9 28 20 23 25 65 27 65 3 0 -10 -14 -30 -32 -45
-18 -14 -29 -30 -25 -34 4 -4 13 -1 20 7 6 9 24 23 40 32 15 10 27 25 28 35 1
39 18 -24 18 -72 1 -62 -27 -124 -84 -183 -37 -38 -47 -43 -85 -43 -40 0 -49
5 -98 56 -40 41 -51 59 -43 67 20 20 11 24 -30 13 -32 -8 -45 -7 -67 5 -33 18
-56 63 -48 94 7 28 58 47 92 34 12 -4 30 -6 40 -5 11 2 21 -1 24 -5 3 -5 12 2
19 14 13 20 13 21 -3 8 -15 -13 -17 -12 -12 13 3 15 1 24 -5 21 -5 -4 -9 -1
-9 5 0 6 -4 8 -10 5 -5 -3 -10 -11 -10 -16 0 -6 4 -8 9 -4 5 3 13 0 17 -6 5
-8 3 -9 -6 -4 -9 6 -12 4 -8 -7 4 -8 1 -15 -7 -15 -8 0 -11 7 -7 15 4 11 1 13
-7 7 -10 -6 -11 -3 -1 15 17 32 6 38 -118 70 -35 9 -41 14 -32 25 9 10 18 11
37 4 14 -5 28 -8 30 -5 2 2 -10 9 -28 15 -18 6 -30 13 -27 16 2 3 38 -6 78
-20 41 -14 78 -24 83 -22 5 1 -22 13 -60 26 -79 28 -86 32 -78 53 5 13 11 14
47 1 23 -8 50 -20 62 -28 26 -19 47 -19 23 -1 -15 11 -16 19 -8 34 15 29 66
47 94 34 22 -11 22 -11 -3 -11 -29 -1 -50 -18 -50 -40 0 -11 5 -8 16 8 14 19
22 22 53 16 l36 -7 -33 31 c-36 35 -41 47 -13 32 13 -7 24 -6 37 4 11 8 24 14
29 15 6 0 -3 -9 -18 -19z m-112 -18 c-16 -8 -40 -25 -52 -36 -13 -11 -23 -16
-23 -10 0 14 30 40 60 52 39 15 48 12 15 -6z m549 -59 c9 -3 16 -17 16 -31 0
-14 9 -38 20 -53 17 -24 18 -29 5 -34 -22 -8 -61 9 -79 36 -20 29 -20 47 1 70
18 21 16 20 37 12z m445 -298 c15 -18 -2 -56 -24 -56 -14 0 -45 26 -45 39 0
28 50 40 69 17z m-249 -103 c0 -13 -3 -14 -12 -5 -15 15 -38 16 -38 1 0 -5 5
-7 10 -4 6 3 10 -1 10 -9 0 -20 -14 -20 -30 -1 -17 20 -4 35 31 35 21 0 29 -5
29 -17z m195 -168 c-8 -30 -20 -55 -25 -55 -6 0 -10 4 -10 8 0 9 -53 42 -67
42 -4 0 -14 -4 -22 -9 -12 -8 -9 -15 12 -41 29 -34 36 -85 16 -121 -6 -11 -8
-25 -6 -32 2 -7 11 2 20 18 l16 30 1 -35 c0 -32 -3 -35 -30 -36 -28 -1 -29 0
-24 40 3 23 7 47 10 54 8 25 -24 81 -58 99 -25 14 -54 18 -123 18 -77 -1 -97
-5 -140 -27 -27 -14 -67 -42 -87 -62 l-38 -37 0 45 c0 36 -5 48 -26 65 -49 39
-106 26 -172 -38 -23 -22 -42 -35 -42 -28 -1 6 -7 1 -15 -13 -14 -24 -14 -23
-15 26 0 61 -12 74 -65 74 -49 0 -98 -32 -161 -103 l-41 -46 -1 47 c-2 31 -8
51 -20 60 -27 21 -81 7 -119 -30 -18 -17 -33 -26 -33 -19 0 7 15 28 34 47 28
28 42 34 75 34 44 0 91 -33 91 -63 0 -8 24 8 53 35 84 79 83 79 129 72 43 -7
78 -33 78 -58 0 -22 41 -13 73 16 58 54 163 39 195 -28 l15 -33 31 26 c48 41
106 63 166 63 50 0 61 13 17 22 -16 3 -14 9 15 50 32 46 58 62 58 36 0 -7 -7
-22 -15 -32 -8 -11 -15 -34 -14 -50 0 -31 0 -31 15 8 18 50 20 52 39 32 15
-14 53 -22 80 -16 6 1 15 3 22 4 7 1 16 5 19 9 4 4 12 7 17 7 15 0 -22 -38
-60 -61 -19 -12 -32 -24 -29 -27 3 -3 24 8 46 23 36 25 57 46 113 115 19 24
21 -61 2 -125z m-705 100 c14 -16 6 -50 -9 -40 -6 3 -27 -1 -47 -10 -20 -8
-51 -15 -68 -15 -39 1 -81 31 -73 54 8 20 33 21 40 2 8 -19 77 -29 111 -16 23
9 26 13 16 25 -10 12 -10 15 3 15 8 0 20 -7 27 -15z m506 1 c7 -8 19 -16 26
-19 7 -2 9 -8 5 -13 -4 -5 -12 -2 -17 6 -6 8 -10 11 -10 7 0 -9 -30 18 -30 27
0 10 11 7 26 -8z m289 -26 c21 -21 43 -36 49 -33 6 3 8 3 4 -2 -4 -4 2 -19 12
-33 11 -13 20 -34 20 -45 0 -19 -2 -19 -29 7 -18 17 -44 30 -70 33 l-41 6 0
53 c0 30 4 54 8 54 4 0 25 -18 47 -40z m-682 -2 c29 -38 43 -78 28 -78 -5 0
-16 9 -24 20 -11 15 -21 19 -39 15 -16 -4 -29 -1 -38 10 -11 13 -9 19 10 40
30 32 34 32 63 -7z m297 24 c0 -5 -9 -17 -20 -27 -11 -10 -22 -26 -25 -36 -6
-19 -45 -27 -45 -10 0 11 71 81 82 81 4 0 8 -4 8 -8z m-391 -66 c9 -11 7 -15
-13 -20 -31 -8 -83 13 -64 26 20 12 64 9 77 -6z m-74 -22 c13 -5 14 -8 3 -15
-21 -13 -45 -10 -52 6 -6 16 18 20 49 9z m1159 -15 c14 -11 26 -30 26 -41 l0
-21 23 21 c35 33 91 52 157 52 51 0 65 -4 85 -25 30 -29 31 -39 4 -118 -21
-62 -49 -108 -35 -57 4 14 12 51 18 84 12 56 11 59 -11 77 -46 37 -139 19
-221 -43 l-52 -39 7 30 c10 48 -8 71 -59 71 -50 0 -112 -37 -175 -105 l-41
-44 5 42 c4 50 -15 77 -54 77 -25 0 -117 -57 -133 -83 -4 -7 -8 3 -8 24 0 19
-6 41 -12 48 -11 11 -10 13 2 9 8 -3 20 -14 26 -26 10 -21 11 -21 44 13 28 29
41 35 75 35 51 0 85 -23 85 -57 0 -25 1 -25 42 17 74 75 152 98 202 59z m491
-4 c31 -31 32 -65 1 -131 -32 -69 -47 -76 -25 -11 26 75 25 125 -3 136 -28 10
-43 5 -85 -27 -36 -26 -43 -20 -15 14 39 49 90 57 127 19z m-2255 -3 c44 -22
62 -56 56 -106 -7 -57 -21 -63 -24 -9 -2 64 -8 78 -38 91 -85 40 -195 -9 -265
-119 -41 -63 -49 -56 -13 11 66 122 190 179 284 132z m502 -59 c37 -33 16
-103 -31 -103 -30 0 -41 -16 -61 -90 -14 -53 -6 -80 26 -80 17 0 27 8 34 24
13 34 50 66 76 66 25 0 40 -15 24 -25 -5 -3 -10 -20 -10 -36 0 -41 41 -61 70
-34 26 24 25 39 -10 105 -34 62 -37 88 -15 130 19 38 43 50 96 50 81 0 118
-76 66 -136 -30 -35 -56 -28 -49 14 4 32 -7 46 -31 36 -30 -11 -28 -38 8 -106
19 -37 35 -80 36 -95 0 -27 1 -27 11 -7 14 29 60 54 66 36 8 -25 34 -42 63
-42 43 0 85 45 118 125 24 61 31 70 56 73 26 3 27 2 21 -31 -8 -43 15 -56 45
-26 26 26 21 60 -11 77 -28 14 -106 10 -140 -8 -26 -14 -36 -55 -20 -86 12
-21 11 -27 -10 -49 -41 -44 -103 -29 -124 29 -11 31 13 94 50 130 46 45 110
66 198 66 112 0 176 -42 176 -116 0 -25 -41 -76 -69 -85 -12 -4 -12 -9 2 -29
53 -76 -21 -194 -118 -188 -32 2 -44 9 -61 35 l-21 32 -21 -28 c-25 -34 -79
-61 -122 -61 -38 0 -90 47 -90 82 0 20 -3 18 -18 -12 -43 -88 -180 -93 -231
-8 l-19 30 -16 -24 c-15 -23 -55 -48 -76 -48 -27 0 -50 42 -50 89 0 49 -1 50
-32 53 -30 3 -36 -2 -70 -54 -76 -117 -184 -144 -237 -58 -17 28 -19 29 -32
14 -34 -42 -134 -57 -188 -30 -40 21 -62 60 -68 119 -11 107 44 212 137 260
44 23 64 28 100 24 94 -11 118 -97 45 -165 -37 -34 -84 -42 -76 -12 2 8 6 30
9 48 4 30 2 32 -25 32 -41 0 -71 -25 -84 -70 -16 -53 1 -93 48 -115 40 -19
106 -14 133 10 20 18 70 30 70 17 0 -19 31 -42 57 -42 14 0 41 10 60 21 l34
21 -34 24 c-38 25 -67 77 -67 119 0 16 12 38 30 56 39 39 97 38 117 -1 11 -22
10 -25 -7 -28 -43 -7 -60 -83 -25 -112 9 -7 21 4 48 47 79 129 186 194 239
146z m1220 0 c37 -34 16 -103 -32 -103 -25 0 -32 -6 -45 -37 -9 -20 -17 -57
-18 -82 -2 -41 1 -46 20 -49 13 -2 33 4 45 12 30 22 41 20 53 -6 19 -44 108
-27 137 25 17 30 68 150 68 159 0 4 -7 8 -15 8 -30 0 -64 -24 -76 -53 -11 -26
-10 -31 5 -43 26 -18 12 -52 -31 -72 -31 -15 -37 -15 -61 -1 -18 9 -30 28 -36
52 -24 95 76 197 192 197 96 0 108 -20 72 -125 -11 -32 -20 -60 -20 -62 0 -1
13 -3 29 -3 27 0 31 6 61 80 34 84 66 120 106 120 26 0 44 -26 44 -62 -1 -45
-38 -107 -85 -140 -36 -25 -45 -38 -43 -57 5 -39 32 -49 73 -27 44 24 51 17
29 -26 -47 -93 -101 -130 -155 -107 -33 13 -44 43 -36 97 13 79 14 77 -15 80
-24 3 -30 -3 -57 -61 -50 -105 -132 -162 -205 -143 -26 6 -51 27 -58 48 -3 8
-13 5 -33 -10 -34 -27 -49 -28 -75 -2 -15 15 -20 33 -20 69 0 49 0 49 -36 53
-31 4 -37 1 -51 -26 -48 -93 -111 -142 -175 -133 -58 8 -88 40 -88 94 0 33 6
50 25 68 27 28 55 33 55 10 0 -38 76 -46 116 -12 l27 24 -30 21 c-35 25 -63
77 -63 117 0 39 50 85 92 85 19 0 39 -5 46 -12 17 -17 15 -48 -3 -48 -23 0
-47 -44 -39 -74 13 -52 29 -50 67 11 79 129 186 194 239 146z m-1462 -112 c0
-3 -7 -14 -14 -24 -12 -16 -14 -16 -20 -1 -3 9 -4 19 -1 23 5 9 35 10 35 2z
m320 -11 c0 -5 -15 -16 -33 -23 -18 -8 -47 -31 -65 -51 -18 -20 -37 -34 -42
-31 -14 9 -12 45 5 80 l14 30 -6 -42 c-6 -44 10 -61 22 -23 13 41 105 94 105
60z m1105 -22 c-4 -13 -9 -30 -11 -40 -5 -19 11 -34 21 -18 9 15 25 12 25 -4
0 -14 -21 -26 -45 -26 -21 0 -28 36 -15 75 13 38 35 49 25 13z m-1794 -72 c40
-10 81 -3 101 17 16 16 70 28 84 19 6 -4 13 -15 17 -24 3 -9 16 -18 28 -20 30
-4 37 -28 9 -28 -11 0 -32 11 -46 25 -30 30 -48 31 -81 5 -19 -14 -41 -20 -79
-20 -45 0 -59 5 -84 28 -23 21 -29 32 -23 51 6 23 6 23 22 -10 12 -25 25 -36
52 -43z m893 37 c-3 -53 -3 -53 -14 -53 -6 0 -15 12 -21 27 -9 23 -7 30 13 45
13 10 23 18 24 18 0 0 0 -17 -2 -37z m-184 -5 c0 -12 8 -30 18 -41 16 -19 16
-19 -3 -16 -14 3 -21 15 -26 42 -3 20 -2 37 3 37 4 0 8 -10 8 -22z m720 -16
c14 -16 32 -31 40 -34 26 -9 4 -19 -25 -12 -15 4 -30 15 -32 25 -7 25 -34 24
-63 -1 -31 -27 -42 -25 -38 6 2 21 9 28 32 30 15 2 31 5 34 8 12 12 29 5 52
-22z m940 3 c15 -18 -6 -73 -46 -121 l-25 -29 19 40 c23 46 37 105 26 105 -4
0 -15 -6 -23 -14 -23 -19 -54 -27 -70 -17 -20 13 -5 29 22 24 14 -3 29 2 36
11 17 20 45 20 61 1z m-284 -72 c-15 -30 -50 -75 -44 -58 16 42 40 85 48 85 6
0 4 -12 -4 -27z m-455 -96 c9 -35 -7 -43 -56 -27 -40 13 -40 13 -22 41 19 31
68 22 78 -14z"/>
<path d="M1853 1953 c-21 -8 -15 -22 6 -16 11 3 28 0 38 -6 15 -9 11 -10 -21
-11 -44 0 -41 -9 6 -25 36 -12 54 -41 19 -31 -11 3 -30 9 -41 12 -11 3 -20 1
-20 -5 0 -6 6 -11 14 -11 21 0 46 -28 40 -45 -5 -11 -11 -12 -24 -5 -30 16
-76 11 -95 -10 -10 -11 -13 -20 -8 -20 6 0 16 7 23 15 14 17 57 20 80 5 10 -6
4 -8 -21 -4 -37 6 -76 -17 -63 -37 3 -5 12 -2 20 6 9 8 25 15 37 15 19 0 19
-2 -8 -30 -23 -24 -26 -32 -15 -45 32 -39 120 15 94 57 -6 9 -10 5 -14 -12 -4
-15 -17 -29 -33 -34 -38 -14 -47 2 -14 28 15 12 27 27 27 33 0 6 7 16 15 23 9
7 13 21 10 31 -4 13 -1 19 9 19 23 0 19 26 -6 44 l-22 16 22 0 c12 0 22 4 22
9 0 20 -53 44 -77 34z"/>
<path d="M1687 1924 c-4 -4 -7 -12 -7 -18 0 -7 3 -7 11 1 11 11 56 6 65 -8 3
-5 -10 -9 -28 -10 -31 0 -31 -1 -10 -10 15 -6 31 -5 44 2 17 9 18 13 7 25 -17
16 -71 29 -82 18z"/>
<path d="M1488 1889 c-21 -12 -24 -39 -5 -39 7 0 17 -10 22 -22 11 -24 45 -35
73 -22 9 4 29 6 43 5 14 -1 31 5 38 13 15 17 8 46 -10 46 -8 0 -8 -5 2 -16 10
-13 10 -17 -2 -25 -17 -10 -22 -11 -43 -3 -9 3 -13 10 -10 15 3 5 1 9 -4 9 -5
0 -12 -9 -15 -20 -3 -13 -14 -20 -30 -20 -31 0 -43 16 -27 35 10 13 8 15 -16
15 l-29 1 24 19 c25 21 18 26 -11 9z"/>
<path d="M1965 1790 c6 -10 1 -12 -19 -8 -25 5 -26 4 -11 -12 19 -21 9 -49
-27 -74 -12 -9 -18 -16 -12 -16 17 0 67 57 62 72 -3 7 2 18 10 24 12 9 12 13
2 19 -9 6 -11 4 -5 -5z"/>
<path d="M1670 1742 c0 -7 -5 -10 -10 -7 -6 4 -8 -3 -6 -17 3 -13 5 -30 6 -38
1 -9 5 -6 10 8 11 27 34 30 25 3 -7 -23 15 -43 35 -31 20 13 33 12 25 0 -3 -5
-1 -10 4 -10 18 0 12 13 -19 44 -17 16 -30 33 -30 38 0 5 -5 6 -11 2 -6 -3
-15 0 -20 7 -7 11 -9 11 -9 1z"/>
<path d="M1802 1678 c11 -16 26 -23 49 -24 27 -2 29 -1 6 3 -15 2 -33 13 -40
24 -6 10 -16 19 -21 19 -4 0 -2 -10 6 -22z"/>
<path d="M1572 1590 c14 -22 18 -23 42 -14 9 3 14 10 11 15 -3 4 -12 6 -19 3
-8 -3 -17 -1 -21 5 -3 6 -10 11 -16 11 -5 0 -4 -9 3 -20z"/>
<path d="M1562 1542 c2 -4 10 -19 18 -35 14 -28 48 -44 74 -34 18 7 51 55 43
63 -8 8 -139 14 -135 6z m108 -22 c0 -16 -27 -23 -58 -15 l-27 8 25 7 c37 12
60 11 60 0z"/>
<path d="M1050 1814 c0 -14 3 -14 15 -4 23 19 60 -4 79 -49 12 -29 15 -32 15
-13 1 32 -51 82 -83 82 -17 0 -26 -5 -26 -16z"/>
<path d="M945 1760 c-14 -23 28 -150 51 -150 19 0 17 54 -4 109 -17 45 -35 61
-47 41z"/>
<path d="M930 1556 c0 -37 143 -100 203 -89 37 7 34 21 -3 15 -48 -7 -120 18
-162 56 -27 25 -38 30 -38 18z"/>
<path d="M800 1551 c17 -5 21 -9 12 -15 -6 -4 -12 -14 -12 -22 0 -19 71 -16
77 3 5 15 -48 43 -79 42 -22 -1 -22 -1 2 -8z"/>
<path d="M844 1032 c-6 -4 -28 -32 -47 -63 l-36 -57 29 -4 c27 -4 30 -1 50 54
22 61 23 83 4 70z"/>
<path d="M1542 933 c-22 -8 -34 -41 -22 -63 13 -24 33 -26 54 -4 31 30 7 81
-32 67z"/>
<path d="M2601 1018 c-6 -17 -8 -34 -5 -37 8 -8 44 37 44 55 0 27 -28 14 -39
-18z"/>
<path d="M2020 978 l-40 -63 28 -5 c25 -5 29 -1 49 50 42 101 22 110 -37 18z"/>
<path d="M489 1923 c-13 -21 -41 -49 -62 -62 -20 -13 -37 -30 -37 -37 0 -6 14
-22 31 -35 46 -36 79 -72 79 -88 0 -5 6 -11 13 -14 11 -4 12 3 6 36 -8 47 -47
87 -84 87 -13 0 -27 5 -30 10 -3 6 4 10 17 10 13 0 38 9 55 20 25 15 34 29 39
60 8 51 20 51 28 0 7 -44 33 -67 91 -80 40 -9 48 5 12 19 -13 5 -36 24 -51 43
-15 18 -34 41 -42 51 -21 26 -38 21 -65 -20z"/>
</g>
</svg>
